<?xml version="1.0" standalone="no"?>
<!DOCTYPE svg PUBLIC "-//W3C//DTD SVG 1.1//EN" "http://www.w3.org/Graphics/SVG/1.1/DTD/svg11.dtd" >
<svg xmlns="http://www.w3.org/2000/svg">
<metadata></metadata>
<defs>
<font id="adihausdinregular" horiz-adv-x="1081" >
<font-face units-per-em="2048" ascent="1565" descent="-483" />
<missing-glyph horiz-adv-x="509" />
<glyph horiz-adv-x="2048" />
<glyph horiz-adv-x="2048" />
<glyph unicode="&#xd;" horiz-adv-x="509" />
<glyph unicode=" "  horiz-adv-x="509" />
<glyph unicode="&#x09;" horiz-adv-x="509" />
<glyph unicode="&#xa0;" horiz-adv-x="509" />
<glyph unicode="!" horiz-adv-x="647" d="M266 0v172h176v-172h-176zM270 1458h170l-22 -1048h-127z" />
<glyph unicode="&#x22;" horiz-adv-x="866" d="M180 1110v348h162v-348h-162zM524 1110v348h162v-348h-162z" />
<glyph unicode="#" horiz-adv-x="1337" d="M158 465v131h204l48 289h-189v135h207l70 440h153l-71 -440h325l70 440h149l-69 -440h178v-135h-197l-47 -289h182v-131h-202l-74 -465h-152l74 465h-328l-71 -465h-152l74 465h-182zM512 596h326l47 289h-326z" />
<glyph unicode="$" horiz-adv-x="1220" d="M86 180l107 107q82 -82 164.5 -118t187.5 -40v543l-41 4q-84 8 -153.5 41t-112.5 69q-113 100 -113 273q0 174 109.5 283.5t302.5 125.5v183h122v-183q119 -6 207 -44t174 -113l-100 -101q-59 53 -125.5 85t-161.5 38v-530l64 -10q51 -8 90 -17.5t69.5 -22t56 -27.5 t48.5 -36q59 -51 92 -124t33 -165q0 -90 -32 -161.5t-90 -125t-141 -85t-184 -37.5v-225h-122v221q-145 6 -250 51t-201 141zM279 1065q0 -111 65 -168q43 -35 95.5 -53.5t105.5 -26.5v516q-129 -10 -197.5 -81.5t-68.5 -186.5zM653 129q139 10 218 79.5t79 188.5 q0 57 -18.5 104.5t-52.5 78.5q-51 45 -105.5 55t-120.5 20v-526z" />
<glyph unicode="%" horiz-adv-x="1705" d="M133 981v215q0 129 78 203t199 74t198.5 -74t77.5 -203v-215q0 -129 -78 -201.5t-198 -72.5q-121 0 -199 72.5t-78 201.5zM250 985q0 -84 37 -130t123 -46t121.5 46t35.5 130v207q0 84 -35.5 131t-121.5 47t-123 -47t-37 -131v-207zM451 0l684 1458h122l-684 -1458h-122z M1022 260v215q0 129 78 203t198 74q121 0 199 -74t78 -203v-215q0 -127 -78 -200.5t-199 -73.5t-198.5 73.5t-77.5 200.5zM1139 266q0 -86 36.5 -132t122.5 -46t122 46t36 132v205q0 84 -36 131t-122 47t-122.5 -47t-36.5 -131v-205z" />
<glyph unicode="&#x26;" horiz-adv-x="1513" d="M158 412q0 82 26.5 145.5t70.5 114.5t101.5 93t116.5 83q-27 33 -54.5 67.5t-51 73.5t-38 83t-14.5 93q0 66 23.5 121t67 96t102.5 64.5t129 23.5q68 0 126 -23.5t101 -64.5t66.5 -97t23.5 -122q0 -88 -46 -150.5t-115 -109.5l-109 -74l373 -448q23 33 38 66.5t24 72.5 t14.5 86t5.5 109h147q-2 -139 -32.5 -250t-102.5 -197l223 -268h-194l-131 160q-23 -20 -60 -50t-90 -56.5t-122.5 -46t-158.5 -19.5q-106 0 -191 30.5t-145.5 86t-92 133t-31.5 174.5zM309 416q0 -66 22.5 -119t63.5 -92t97.5 -59.5t123.5 -20.5q82 0 166 28.5t179 112.5 l-402 484q-47 -33 -92 -66t-80 -72t-56.5 -87t-21.5 -109zM469 1167q0 -51 29.5 -101t101.5 -138l78 53q51 35 91 77t40 105q0 74 -49 124t-123 50q-76 0 -122 -48t-46 -122z" />
<glyph unicode="'" horiz-adv-x="522" d="M180 1110v348h162v-348h-162z" />
<glyph unicode="(" horiz-adv-x="610" d="M188 195v1069q0 55 7.5 107t35.5 104q27 47 61 84.5t87 91.5l104 -105q-41 -39 -67.5 -67.5t-44.5 -65.5q-16 -31 -22.5 -70.5t-6.5 -91.5v-1044q0 -51 5 -88t24 -74q18 -37 44.5 -65.5t67.5 -67.5l-104 -105q-53 53 -87 91.5t-61 85.5q-29 53 -36 103t-7 108z" />
<glyph unicode=")" horiz-adv-x="610" d="M125 -88q41 39 67.5 67.5t45.5 65.5q18 37 23 74t5 88v1044q0 51 -6 91t-22 71q-18 37 -45 65.5t-68 67.5l104 105q53 -53 87 -91t61 -85q29 -51 36 -103.5t7 -107.5v-1069q0 -57 -7 -107.5t-36 -103.5q-27 -47 -60.5 -85t-87.5 -92z" />
<glyph unicode="*" horiz-adv-x="970" d="M137 967l246 133l-246 135l60 98l237 -145l-8 280h119l-8 -280l239 145l58 -98l-246 -135l246 -133l-58 -101l-239 146l8 -281h-119l8 281l-237 -146z" />
<glyph unicode="+" horiz-adv-x="1069" d="M106 479v137h361v357h137v-357h359v-137h-359v-360h-137v360h-361z" />
<glyph unicode="," horiz-adv-x="540" d="M180 180h180v-313l-180 -162v475z" />
<glyph unicode="-" horiz-adv-x="872" d="M156 483v138h561v-138h-561z" />
<glyph unicode="." horiz-adv-x="552" d="M180 0v193h193v-193h-193z" />
<glyph unicode="/" horiz-adv-x="727" d="M0 -152l584 1762h145l-584 -1762h-145z" />
<glyph unicode="0" d="M141 389v680q0 90 30 165t84 127t127 80.5t159 28.5t158.5 -28.5t126 -80.5t84 -127t30.5 -165v-680q0 -90 -30.5 -164.5t-84 -127t-126 -81t-158.5 -28.5t-159 28.5t-127 81t-84 127t-30 164.5zM289 397q0 -121 64.5 -199.5t187.5 -78.5t187.5 78.5t64.5 199.5v664 q0 121 -64.5 199.5t-187.5 78.5t-187.5 -78.5t-64.5 -199.5v-664z" />
<glyph unicode="1" d="M262 1055v168l273 235h147v-1458h-147v1294z" />
<glyph unicode="2" d="M145 0v131l576 731q41 53 61.5 104.5t20.5 110.5q0 119 -66.5 190.5t-187.5 71.5q-51 0 -97 -14t-81 -47t-55.5 -83t-20.5 -120h-148q0 86 29 159t81 125t126 81.5t166 29.5q90 0 163.5 -27.5t127 -78.5t82 -124t28.5 -163q0 -88 -28.5 -152.5t-87.5 -142.5l-510 -651 h626v-131h-805z" />
<glyph unicode="3" d="M92 371h148q4 -68 28.5 -116t63.5 -79t87 -45t101 -14q119 0 200 73.5t81 208.5q0 133 -68.5 208t-218.5 75h-31v129h31q135 0 197.5 70.5t62.5 193.5q0 131 -73.5 198.5t-180.5 67.5q-117 0 -184.5 -65.5t-77.5 -177.5h-147q6 88 39.5 157.5t88 117.5t126 74t155.5 26 q88 0 163 -29t127 -80t82 -125t30 -162q0 -236 -197 -323q223 -85 223 -357q0 -100 -33.5 -177t-91 -129t-136.5 -78.5t-167 -26.5q-86 0 -161.5 22.5t-133 70.5t-93.5 120.5t-40 171.5z" />
<glyph unicode="4" d="M88 231v134l526 1093h158l-526 -1093h424v413h145v-413h178v-134h-178v-231h-145v231h-582z" />
<glyph unicode="5" d="M150 344h147q14 -111 72.5 -169t175.5 -58q113 0 180 67q29 29 45 64t23.5 73.5t9.5 79.5t2 80q0 68 -9.5 131.5t-35 112.5t-73.5 80t-128 31q-96 0 -157.5 -39t-84.5 -105h-133v766h738v-131h-605v-463q43 47 110 74t153 27q82 0 145 -25t106 -68q39 -41 64 -87t37 -97 t16 -103.5t4 -103.5q0 -111 -19.5 -210t-96.5 -177q-51 -51 -122 -79.5t-169 -28.5q-96 0 -171 28.5t-122 75.5q-47 49 -71.5 112.5t-30.5 141.5z" />
<glyph unicode="6" d="M139 408q0 78 22.5 156.5t69.5 170.5l359 723h151l-325 -655q68 31 153 31q86 0 156 -31t119 -86t76.5 -131t27.5 -166q0 -92 -28.5 -172t-81 -137.5t-127 -90t-166.5 -32.5t-168 29.5t-128 85t-81 133t-29 172.5zM287 414q0 -135 69.5 -215t186.5 -80t187.5 80t70.5 215 q0 61 -16.5 114.5t-49.5 93.5t-81 63.5t-111 23.5q-117 0 -186.5 -80t-69.5 -215z" />
<glyph unicode="7" d="M162 1098v360h809v-131l-506 -1327h-156l506 1327h-508v-229h-145z" />
<glyph unicode="8" d="M111 401q0 129 63.5 215t155.5 140q-86 49 -138.5 129t-52.5 194q0 86 30 158t84 124t128 80.5t160 28.5t159.5 -28.5t128 -80.5t84 -124t29.5 -158q0 -115 -51 -194.5t-137 -128.5q92 -53 154.5 -139.5t62.5 -215.5q0 -92 -33 -167.5t-91.5 -131t-137 -85t-168.5 -29.5 t-169 29.5t-137.5 85t-91 131t-32.5 167.5zM258 403q0 -61 21.5 -112t59.5 -90t90 -60.5t112 -21.5q59 0 111.5 21.5t90 60.5t59 90t21.5 112t-21.5 112.5t-59 90.5t-90 60.5t-111.5 21.5t-111.5 -21.5t-90.5 -60.5t-59.5 -90t-21.5 -113zM287 1077q0 -117 70.5 -188.5 t183.5 -71.5t183.5 71.5t70.5 188.5q0 115 -71 188.5t-183 73.5q-113 0 -183.5 -73.5t-70.5 -188.5z" />
<glyph unicode="9" d="M133 1038q0 92 28.5 172t81 137.5t127 90t167.5 32.5q92 0 167.5 -29.5t128 -85t81 -133t28.5 -171.5q0 -78 -22.5 -157t-69.5 -171l-358 -723h-154l328 655q-68 -31 -156 -30q-86 0 -155.5 30.5t-119 86t-76 131t-26.5 165.5zM281 1044q0 -61 16 -114t48 -93t80 -63.5 t112 -23.5q117 0 187.5 79.5t70.5 214.5t-71 215t-187 80q-117 0 -186.5 -79.5t-69.5 -215.5z" />
<glyph unicode=":" horiz-adv-x="608" d="M236 0v193h192v-193h-192zM236 616v193h192v-193h-192z" />
<glyph unicode=";" horiz-adv-x="608" d="M236 616v193h192v-193h-192zM240 180h180v-313l-180 -162v475z" />
<glyph unicode="&#x3c;" horiz-adv-x="1069" d="M195 483v135l677 345v-158l-512 -254l512 -254v-158z" />
<glyph unicode="=" horiz-adv-x="1069" d="M106 309v135h857v-135h-857zM106 655v138h857v-138h-857z" />
<glyph unicode="&#x3e;" horiz-adv-x="1069" d="M195 139v158l512 254l-512 254v158l677 -345v-135z" />
<glyph unicode="?" horiz-adv-x="1017" d="M156 1096q0 78 28.5 146.5t80.5 118.5t122 79.5t154 29.5q80 0 150.5 -27.5t121.5 -76.5t81 -117.5t30 -150.5q0 -72 -26 -130.5t-67 -117.5l-167 -242q-18 -29 -27.5 -61.5t-9.5 -57.5v-79h-148v82q0 59 15.5 102t48.5 90l166 240q29 43 48 81.5t19 92.5 q0 104 -65.5 172.5t-169.5 68.5q-55 0 -99.5 -19.5t-75 -53t-47 -77.5t-16.5 -93h-147zM465 0v172h176v-172h-176z" />
<glyph unicode="@" horiz-adv-x="1945" d="M156 496q0 186 69.5 349t191.5 283.5t284.5 189t349.5 68.5q170 0 311 -53t241.5 -148t156 -229.5t55.5 -296.5q0 -121 -44.5 -230.5t-124 -192t-189 -131t-238.5 -48.5h-127l24 117q-51 -63 -112.5 -96t-139.5 -33q-125 0 -205.5 70.5t-80.5 218.5q0 41 5 87t13 85 q23 123 61.5 215t108.5 151q57 51 120.5 72t125.5 21q98 0 152.5 -42t76.5 -96l27 125h131l-160 -794q100 2 183 45t141.5 112.5t91.5 158.5t33 185q0 135 -47.5 248t-132.5 193t-201.5 124t-255.5 44q-158 0 -297.5 -60.5t-242.5 -165t-163.5 -245t-60.5 -301.5 q0 -170 55 -312.5t156.5 -246t245 -162t321.5 -58.5h102l-22 -110h-103q-195 0 -357.5 67.5t-280 186.5t-183 281.5t-65.5 353.5zM717 352q0 -102 51 -144t117 -42q47 0 91 19.5t77 50.5q41 39 68.5 99t49.5 171q8 41 13.5 79.5t5.5 71.5q0 51 -14.5 87t-38 57.5t-54 32 t-63.5 10.5q-47 0 -89 -18.5t-75 -49.5q-41 -39 -69.5 -100.5t-51.5 -171.5q-8 -41 -13 -80t-5 -72z" />
<glyph unicode="A" horiz-adv-x="1251" d="M25 0l536 1458h131l535 -1458h-166l-117 330h-637l-117 -330h-165zM354 465h545l-270 770z" />
<glyph unicode="B" horiz-adv-x="1368" d="M211 0v1458h549q94 0 174 -26.5t136 -76.5t88 -122t32 -164q0 -117 -61.5 -201t-153.5 -118q104 -39 170.5 -127.5t66.5 -219.5q0 -98 -31.5 -173.5t-89 -127t-137.5 -77t-176 -25.5h-567zM367 139h397q135 0 214 73t79 196t-79 194.5t-214 71.5h-397v-535zM367 813h381 q61 0 113 15.5t90 46t60.5 78.5t22.5 114t-22.5 113t-60.5 77.5t-90 46t-113 15.5h-381v-506z" />
<glyph unicode="C" horiz-adv-x="1304" d="M156 729q0 125 3 215t17 157.5t44 121t81 104.5q68 68 159 105.5t206 37.5q199 0 333 -114.5t172 -319.5h-159q-29 135 -119 215t-227 80q-150 0 -252 -102q-35 -35 -55.5 -76t-31 -97.5t-13.5 -135t-3 -191.5t3 -191.5t13.5 -135t31 -97.5t55.5 -76q102 -102 252 -102 q137 0 229 80t121 215h155q-39 -205 -173 -319.5t-332 -114.5q-115 0 -206 37.5t-159 105.5q-51 51 -81 104.5t-44 121t-17 157.5t-3 215z" />
<glyph unicode="D" horiz-adv-x="1378" d="M211 0v1458h500q123 0 216 -37t167 -116q49 -53 74.5 -118t38 -138.5t14.5 -154.5t2 -165t-2 -165t-14.5 -154.5t-38 -139t-74.5 -116.5q-74 -80 -167 -117t-216 -37h-500zM367 139h317q84 0 157.5 22.5t129.5 84.5q35 37 54 89t28.5 114.5t11.5 133t2 146.5t-2 146.5 t-11.5 133t-28.5 115t-54 88.5q-55 61 -129 84t-158 23h-317v-1180z" />
<glyph unicode="E" horiz-adv-x="1228" d="M211 0v1458h905v-139h-749v-514h639v-139h-639v-527h749v-139h-905z" />
<glyph unicode="F" horiz-adv-x="1187" d="M211 0v1458h905v-139h-749v-537h639v-139h-639v-643h-156z" />
<glyph unicode="G" horiz-adv-x="1331" d="M156 729q0 125 3 215t17 157.5t44 121t81 104.5q68 68 159 105.5t206 37.5q102 0 189 -32.5t152.5 -91t108.5 -138.5t60 -174h-156q-31 141 -124 219t-230 78q-154 0 -252 -102q-35 -35 -55.5 -76t-31 -97.5t-13.5 -135t-3 -191.5t3 -191.5t13.5 -135t31 -97.5t55.5 -76 q98 -102 252 -102q80 0 152.5 31.5t123.5 93.5q45 55 63.5 117.5t18.5 146.5v113h-358v133h514v-232q0 -63 -6.5 -114t-20.5 -96.5t-38.5 -85t-59.5 -78.5q-78 -86 -177.5 -127t-211.5 -41q-115 0 -206 37.5t-159 105.5q-51 51 -81 104.5t-44 121t-17 157.5t-3 215z" />
<glyph unicode="H" horiz-adv-x="1425" d="M211 0v1458h156v-653h692v653h155v-1458h-155v666h-692v-666h-156z" />
<glyph unicode="I" horiz-adv-x="577" d="M211 0v1458h156v-1458h-156z" />
<glyph unicode="J" horiz-adv-x="1026" d="M47 119l105 104q39 -41 89 -68.5t140 -27.5q143 0 221 87t78 249v995h156v-1016q0 -104 -34 -189t-94.5 -143.5t-143.5 -90t-183 -31.5q-104 0 -185 31.5t-149 99.5z" />
<glyph unicode="K" horiz-adv-x="1331" d="M211 0v1458h156v-837l680 837h190l-459 -563l525 -895h-185l-444 776l-307 -368v-408h-156z" />
<glyph unicode="L" horiz-adv-x="1173" d="M211 0v1458h156v-1319h745v-139h-901z" />
<glyph unicode="M" horiz-adv-x="1671" d="M211 0v1458h156l475 -1034l463 1034h155v-1458h-155v1108l-400 -879h-133l-405 879v-1108h-156z" />
<glyph unicode="N" horiz-adv-x="1499" d="M211 0v1458h147l775 -1165v1165h155v-1458h-147l-774 1169v-1169h-156z" />
<glyph unicode="O" horiz-adv-x="1331" d="M156 729q0 125 3 215t17 157.5t44 121t81 104.5q68 68 159 105.5t206 37.5t205 -37.5t157 -105.5q51 -51 81 -104.5t44 -121t18.5 -157.5t4.5 -215t-4.5 -215t-18.5 -157.5t-44 -121t-81 -104.5q-68 -68 -158 -105.5t-204 -37.5q-115 0 -206 37.5t-159 105.5 q-51 51 -81 104.5t-44 121t-17 157.5t-3 215zM311 729q0 -113 3 -191.5t13.5 -135t31 -97.5t55.5 -76q102 -102 252 -102t252 102q35 35 55 76t30.5 97.5t13.5 135t3 191.5t-3 191.5t-13.5 135t-31 97.5t-54.5 76q-102 102 -252 102t-252 -102q-35 -35 -55.5 -76t-31 -97.5 t-13.5 -135t-3 -191.5z" />
<glyph unicode="P" horiz-adv-x="1290" d="M211 0v1458h543q98 0 181 -30.5t143.5 -86t93 -134.5t32.5 -177t-32.5 -177t-93 -135t-143.5 -87t-181 -31h-387v-600h-156zM367 739h374q137 0 222.5 73t85.5 218t-85 217t-223 72h-374v-580z" />
<glyph unicode="Q" horiz-adv-x="1329" d="M156 729q0 125 3 215t17 157.5t44 121t81 104.5q68 68 159 105.5t206 37.5t205 -37.5t157 -105.5q51 -51 81 -104.5t44 -121t18.5 -157.5t4.5 -215q0 -111 -2.5 -192.5t-12.5 -145t-30.5 -114t-55.5 -95.5l160 -159l-94 -95l-162 160q-59 -47 -139 -73.5t-174 -26.5 q-115 0 -206 37.5t-159 105.5q-51 51 -81 104.5t-44 121t-17 157.5t-3 215zM311 729q0 -113 3 -191.5t13.5 -135t31 -97.5t55.5 -76q49 -51 113.5 -76.5t138.5 -25.5q59 0 110 16.5t96 53.5l-184 184l94 94l176 -178q20 33 33 72t19 90t8 117.5t2 152.5q0 113 -3 191.5 t-13.5 135t-31 97.5t-54.5 76q-49 51 -114 76.5t-138 25.5q-74 0 -138.5 -25.5t-113.5 -76.5q-35 -35 -55.5 -76t-31 -97.5t-13.5 -135t-3 -191.5z" />
<glyph unicode="R" horiz-adv-x="1343" d="M211 0v1458h559q94 0 174 -27.5t137.5 -80t89 -128t31.5 -169.5q0 -160 -88 -261.5t-229 -129.5l346 -662h-182l-332 647h-350v-647h-156zM367 784h389q129 0 210 66t81 201t-81 201.5t-210 66.5h-389v-535z" />
<glyph unicode="S" horiz-adv-x="1204" d="M88 180l105 105q90 -90 182 -124t215 -34q162 0 254 70.5t92 199.5q0 119 -72 183q-16 14 -33.5 25t-39 19.5t-50 14.5t-67.5 12l-170 25q-172 27 -266 110q-113 100 -113 275q0 92 32.5 168t93 130t146.5 82.5t195 28.5q139 0 239.5 -38.5t194.5 -120.5l-100 -101 q-66 63 -146 95t-194 32q-147 0 -228.5 -74.5t-81.5 -197.5q0 -113 66 -170q35 -29 84 -47.5t106 -28.5l170 -26q100 -16 158 -38t107 -67q59 -51 91 -123t32 -164q0 -96 -36 -172.5t-101.5 -130t-159 -82t-207.5 -28.5q-82 0 -150.5 11t-129 33.5t-114 59.5t-104.5 88z" />
<glyph unicode="T" horiz-adv-x="1122" d="M61 1319v139h1000v-139h-422v-1319h-156v1319h-422z" />
<glyph unicode="U" horiz-adv-x="1398" d="M190 481v977h156v-964q0 -84 24.5 -152t70.5 -115t111.5 -73.5t145.5 -26.5t145.5 26.5t111.5 73.5t72 115t26 152v964h155v-977q0 -109 -37.5 -200t-106.5 -156.5t-162 -101t-204 -35.5t-204 35.5t-160.5 101t-105.5 157t-38 199.5z" />
<glyph unicode="V" horiz-adv-x="1118" d="M16 1458h164l379 -1179l379 1179h164l-479 -1458h-127z" />
<glyph unicode="W" horiz-adv-x="1748" d="M33 1458h166l284 -1175l322 1175h139l322 -1175l284 1175h166l-373 -1458h-145l-324 1167l-323 -1167h-145z" />
<glyph unicode="X" horiz-adv-x="1128" d="M31 0l446 748l-418 710h181l323 -575l324 575h180l-420 -710l451 -748h-180l-355 612l-356 -612h-176z" />
<glyph unicode="Y" horiz-adv-x="1052" d="M16 1458h168l344 -698l340 698h168l-430 -856v-602h-155v602z" />
<glyph unicode="Z" horiz-adv-x="1138" d="M117 0v147l729 1172h-701v139h877v-131l-735 -1188h735v-139h-905z" />
<glyph unicode="[" horiz-adv-x="641" d="M188 -152v1762h363v-131h-215v-1499h215v-132h-363z" />
<glyph unicode="\" horiz-adv-x="727" d="M0 1604h145l582 -1756h-145z" />
<glyph unicode="]" horiz-adv-x="641" d="M90 -25h221v1508h-221v127h363v-1762h-363v127z" />
<glyph unicode="^" horiz-adv-x="1099" d="M147 846l336 624h135l334 -624h-151l-250 467l-252 -467h-152z" />
<glyph unicode="_" horiz-adv-x="1099" d="M0 -233h1100v-105h-1100v105z" />
<glyph unicode="`" horiz-adv-x="1024" d="M256 1530h170l186 -313h-141z" />
<glyph unicode="a" horiz-adv-x="1077" d="M104 285q0 135 90.5 212.5t260.5 77.5h301v97q0 111 -58.5 166t-199.5 55q-96 0 -151.5 -26.5t-102.5 -90.5l-101 92q66 88 149 120t208 32q205 0 304 -86t99 -250v-684h-147v96q-59 -59 -125 -83.5t-166 -24.5q-104 0 -168 20.5t-117 71.5q-39 37 -57.5 91t-18.5 114z M248 287q0 -88 55 -130t178 -42q63 0 118.5 11t105.5 56q51 49 51 174v109h-281q-227 0 -227 -178z" />
<glyph unicode="b" horiz-adv-x="1116" d="M184 0v1458h148v-567q63 78 131.5 103.5t152.5 25.5q78 0 141.5 -23.5t104.5 -64.5q37 -37 61.5 -86t38 -104.5t18.5 -116t5 -121.5q0 -123 -23.5 -236.5t-99.5 -191.5q-41 -41 -104.5 -64.5t-141.5 -23.5q-86 0 -153.5 26.5t-130.5 106.5v-121h-148zM332 504 q0 -74 8 -143.5t35.5 -123t77 -86t133.5 -32.5q82 0 132 32.5t76.5 86t35 123t8.5 143.5t-8.5 143.5t-35 122.5t-76.5 86t-132 33q-84 0 -133.5 -33t-77 -86t-35.5 -122.5t-8 -143.5z" />
<glyph unicode="c" horiz-adv-x="1003" d="M129 504q0 129 34 225t94 160.5t141 97.5t177 33q104 0 179 -33t153 -117l-100 -94q-57 63 -108.5 88t-123.5 25q-74 0 -133 -29t-100 -86q-35 -49 -50.5 -111.5t-15.5 -158.5t15.5 -158.5t50.5 -112.5q41 -57 100.5 -85.5t132.5 -28.5q72 0 123.5 25.5t108.5 88.5 l100 -96q-78 -84 -152.5 -116.5t-179.5 -32.5q-96 0 -177 31.5t-141 96t-94 162t-34 226.5z" />
<glyph unicode="d" horiz-adv-x="1116" d="M131 504q0 61 5 121.5t18.5 116t38 104.5t61.5 86q41 41 104.5 64.5t141.5 23.5q86 0 153.5 -25.5t130.5 -103.5v567h148v-1458h-146v121q-63 -80 -131.5 -106.5t-154.5 -26.5q-78 0 -141.5 23.5t-104.5 64.5q-76 78 -99.5 191.5t-23.5 236.5zM279 504q0 -74 8 -143.5 t35.5 -123t77 -86t132.5 -32.5q82 0 132.5 32.5t77 86t34.5 123t8 143.5t-8 143.5t-34.5 122.5t-77 86t-132.5 33q-84 0 -133 -33t-76.5 -86t-35.5 -122.5t-8 -143.5z" />
<glyph unicode="e" horiz-adv-x="1085" d="M129 504q0 248 110.5 382t303.5 134q199 0 306 -130t107 -360v-65h-680q0 -166 75 -257t222 -91q88 0 146.5 27.5t118.5 86.5l100 -88q-39 -39 -77 -67.5t-82 -48t-95 -29.5t-115 -10q-100 0 -182 30.5t-139.5 94t-88 161t-30.5 230.5zM276 575h535q-2 31 -4 53.5t-5 41 t-9.5 36t-14.5 37.5q-33 70 -93 111t-142 41t-142.5 -41t-93.5 -111q-10 -20 -15 -37.5t-8 -36t-4 -41t-4 -53.5z" />
<glyph unicode="f" horiz-adv-x="643" d="M88 895v113h129v184q0 55 15.5 104.5t48 86t80 58t112.5 21.5h107v-127h-80q-72 0 -103.5 -39t-31.5 -108v-180h215v-113h-215v-895h-148v895h-129z" />
<glyph unicode="g" horiz-adv-x="1112" d="M131 512q0 123 23.5 233.5t99.5 186.5q41 41 104.5 64.5t141.5 23.5q84 0 152.5 -25.5t129.5 -105.5v119h146v-1039q0 -94 -29 -173t-82 -136t-132 -90t-177 -33q-57 0 -102.5 7t-85 23.5t-77.5 42t-77 62.5l96 95q27 -25 52.5 -43.5t53 -32t60.5 -19.5t76 -6 q74 0 126 24.5t86 65.5t49 97.5t15 121.5v158q-61 -78 -130.5 -104.5t-151.5 -26.5q-78 0 -140.5 24.5t-103.5 65.5q-76 76 -99.5 186.5t-23.5 233.5zM279 512q0 -72 8 -139.5t34.5 -119.5t77 -85t131.5 -33q82 0 131.5 33t76 85t34.5 119.5t8 139.5q0 70 -8 138.5 t-34.5 120.5t-76 85t-131.5 33t-132 -33t-76.5 -85t-34.5 -120.5t-8 -138.5z" />
<glyph unicode="h" horiz-adv-x="1150" d="M184 0v1458h148v-561q111 123 282 123q174 0 268.5 -100.5t94.5 -272.5v-647h-148v623q0 135 -64.5 200.5t-180.5 65.5q-117 0 -184.5 -65.5t-67.5 -200.5v-623h-148z" />
<glyph unicode="i" horiz-adv-x="516" d="M176 1294v166h166v-166h-166zM184 0v1008h148v-1008h-148z" />
<glyph unicode="j" horiz-adv-x="518" d="M-31 -324h80q78 0 106.5 37t28.5 111v1184h148v-1190q0 -57 -15.5 -106.5t-47 -86.5t-80 -57.5t-113.5 -20.5h-107v129zM176 1294v166h166v-166h-166z" />
<glyph unicode="k" horiz-adv-x="1097" d="M184 0v1458h148v-975l454 525h185l-342 -385l401 -623h-182l-320 516l-196 -225v-291h-148z" />
<glyph unicode="l" horiz-adv-x="602" d="M180 268v1190h148v-1184q0 -74 28.5 -110.5t106.5 -36.5h80v-127h-107q-133 0 -194.5 77t-61.5 191z" />
<glyph unicode="m" horiz-adv-x="1800" d="M184 0v1008h148v-111q53 61 125.5 92t158.5 31q104 0 183.5 -42t126.5 -126q119 168 331 168q82 0 147.5 -24.5t113.5 -69.5q109 -104 108 -281v-645h-147v621q0 135 -66.5 201.5t-181.5 66.5q-111 0 -181.5 -65.5t-70.5 -186.5v-637h-148v621q0 135 -66.5 201.5 t-180.5 66.5q-115 0 -183.5 -67.5t-68.5 -200.5v-621h-148z" />
<glyph unicode="n" horiz-adv-x="1150" d="M184 0v1008h148v-111q53 61 124.5 92t157.5 31q164 0 258 -94q104 -102 105 -281v-645h-148v621q0 135 -66.5 201.5t-180.5 66.5q-115 0 -182.5 -67.5t-67.5 -200.5v-621h-148z" />
<glyph unicode="o" horiz-adv-x="1085" d="M131 504q0 117 22.5 220t100.5 181q53 53 125 84t164 31t163.5 -31t124.5 -84q78 -78 100.5 -181t22.5 -220t-23.5 -220.5t-99.5 -181.5q-53 -53 -124.5 -83.5t-163.5 -30.5t-164 30.5t-125 83.5q-39 39 -62.5 85t-37 96.5t-18.5 105.5t-5 115zM279 504q0 -43 2 -86 t10 -84t24.5 -77t44.5 -64q74 -74 183 -74q111 0 184 74q55 57 67.5 141t12.5 170t-12.5 171t-67.5 140q-74 74 -184 74q-109 0 -183 -74q-55 -55 -68 -140t-13 -171z" />
<glyph unicode="p" horiz-adv-x="1116" d="M184 -451v1459h148v-119q63 78 130.5 104.5t153.5 26.5q78 0 141.5 -23.5t104.5 -64.5q37 -37 61.5 -86t38 -104.5t18.5 -116t5 -121.5q0 -123 -23.5 -236.5t-99.5 -191.5q-41 -41 -104.5 -64.5t-141.5 -23.5q-84 0 -152.5 26.5t-131.5 104.5v-570h-148zM332 504 q0 -74 8 -143.5t35.5 -123t77 -86t133.5 -32.5q82 0 132 32.5t76.5 86t35 123t8.5 143.5t-8.5 143.5t-35 122.5t-76.5 86t-132 33q-84 0 -133.5 -33t-77 -86t-35.5 -122.5t-8 -143.5z" />
<glyph unicode="q" horiz-adv-x="1116" d="M131 504q0 61 5 121.5t18.5 116t38 104.5t61.5 86q41 41 104.5 64.5t141.5 23.5q86 0 154.5 -26.5t131.5 -104.5v119h146v-1459h-148v570q-63 -78 -130.5 -104.5t-153.5 -26.5q-78 0 -141.5 23.5t-104.5 64.5q-76 78 -99.5 191.5t-23.5 236.5zM279 504q0 -74 8 -143.5 t35.5 -123t77 -86t132.5 -32.5q82 0 132.5 32.5t77 86t34.5 123t8 143.5t-8 143.5t-34.5 122.5t-77 86t-132.5 33q-84 0 -133 -33t-76.5 -86t-35.5 -122.5t-8 -143.5z" />
<glyph unicode="r" horiz-adv-x="862" d="M184 0v1008h148v-123q41 63 117.5 99t164.5 36q72 0 130.5 -20.5t111.5 -73.5l-108 -111q-41 41 -78 57.5t-97 16.5q-55 0 -100 -20.5t-75.5 -57.5t-48 -86t-17.5 -107v-618h-148z" />
<glyph unicode="s" horiz-adv-x="1015" d="M88 133l98 98q59 -61 139.5 -88.5t174.5 -27.5q127 0 197.5 44t70.5 134q0 68 -39 103.5t-129 43.5l-166 15q-147 12 -224 77.5t-77 192.5q0 70 27.5 124t77 92t117 58.5t149.5 20.5q111 0 202 -26.5t160 -82.5l-96 -96q-53 41 -121.5 60.5t-146.5 19.5 q-111 0 -168.5 -44t-57.5 -122q0 -68 43 -102.5t138 -44.5l157 -15q66 -6 121.5 -22.5t94 -48t60 -80.5t21.5 -121q0 -145 -112.5 -226t-296.5 -81q-129 0 -230.5 32.5t-183.5 112.5z" />
<glyph unicode="t" horiz-adv-x="679" d="M82 895v113h127v309h147v-309h215v-113h-215v-621q0 -70 33 -108.5t105 -38.5h77v-127h-104q-66 0 -114 21.5t-79.5 58.5t-48 86t-16.5 104v625h-127z" />
<glyph unicode="u" horiz-adv-x="1150" d="M174 365v643h148v-621q0 -135 65.5 -201.5t179.5 -66.5q115 0 183.5 67.5t68.5 200.5v621h148v-1008h-146v113q-53 -61 -125.5 -93t-158.5 -32q-166 0 -261 94q-53 53 -77.5 123.5t-24.5 159.5z" />
<glyph unicode="v" horiz-adv-x="915" d="M23 1008h159l275 -809l276 809h160l-371 -1008h-131z" />
<glyph unicode="w" horiz-adv-x="1482" d="M23 1008h159l232 -809l264 809h127l266 -809l229 809h160l-317 -1008h-137l-265 782l-262 -782h-137z" />
<glyph unicode="x" horiz-adv-x="978" d="M68 0l342 514l-328 494h178l232 -373l227 373h178l-328 -494l342 -514h-178l-241 391l-246 -391h-178z" />
<glyph unicode="y" horiz-adv-x="915" d="M23 1008h159l277 -809l274 809h160l-459 -1252q-29 -80 -72 -118q-41 -39 -92 -54.5t-104 -15.5h-64v131h45q76 0 109 27.5t57 97.5l72 196z" />
<glyph unicode="z" horiz-adv-x="940" d="M102 0v127l562 750h-531v131h701v-125l-564 -752h564v-131h-732z" />
<glyph unicode="{" horiz-adv-x="724" d="M98 664v131h54q29 0 52 10t40 26q37 37 37 123v392q0 80 13 123.5t48 78.5q33 33 81 47.5t126 14.5h76v-131h-47q-53 0 -79 -5.5t-42 -21.5t-22.5 -47t-6.5 -86v-385q0 -88 -35 -132t-94 -73q59 -29 94 -73t35 -132v-385q0 -55 6 -85.5t23 -47.5q16 -16 41.5 -21t79.5 -5 h47v-132h-76q-78 0 -126 14.5t-81 47.5q-35 35 -48 79t-13 124v391q0 86 -37 123q-16 16 -40 26.5t-52 10.5h-54z" />
<glyph unicode="|" horiz-adv-x="667" d="M260 -152v1762h148v-1762h-148z" />
<glyph unicode="}" horiz-adv-x="724" d="M98 -20h49q53 0 78 5t41 21t23.5 47t7.5 86v385q0 88 35 132t94 73q-59 29 -94 73t-35 132v385q0 55 -7 86t-24 47q-16 16 -40.5 21.5t-78.5 5.5h-49v131h78q78 0 126 -14.5t81 -47.5q35 -35 48 -79t13 -123v-392q0 -86 37 -123q16 -16 40 -26t52 -10h52v-131h-52 q-29 0 -52 -10.5t-40 -26.5q-37 -37 -37 -123v-391q0 -80 -13 -124t-48 -79q-33 -33 -81 -47.5t-126 -14.5h-78v132z" />
<glyph unicode="~" horiz-adv-x="1103" d="M100 543q43 43 77 69.5t63.5 42t59.5 21.5t65 6q53 0 104 -18.5t111 -45.5q43 -20 80.5 -34.5t78.5 -14.5q20 0 39 3t38.5 13.5t42 28t52.5 48.5l93 -93q-43 -43 -77 -70.5t-63.5 -43t-59.5 -20.5t-65 -5q-53 0 -105 18.5t-112 45.5q-43 20 -81 34.5t-79 14.5 q-23 0 -40 -3t-36.5 -13.5t-42 -28t-53.5 -47.5z" />
<glyph unicode="&#xa2;" horiz-adv-x="1019" d="M129 750q0 223 100.5 354t270.5 156v198h121v-194q92 -6 158.5 -40t138.5 -112l-101 -94q-51 57 -97 82.5t-108 29.5v-761q61 4 107.5 29.5t97.5 82.5l101 -94q-72 -78 -138.5 -111.5t-158.5 -39.5v-236h-121v240q-170 25 -270.5 155.5t-100.5 354.5zM276 750 q0 -96 16.5 -159t51.5 -112q63 -88 164 -106v753q-100 -18 -164 -106q-35 -49 -51.5 -111.5t-16.5 -158.5z" />
<glyph unicode="&#xa3;" horiz-adv-x="1122" d="M96 676v110h129v230q0 104 34 189t94.5 143.5t144.5 90t184 31.5q104 0 185 -31.5t149 -99.5l-107 -104q-20 20 -40.5 37.5t-47 31t-60.5 20.5t-79 7q-143 0 -221 -87t-78 -249v-209h299v-110h-299v-537h633v-139h-791v676h-129z" />
<glyph unicode="&#xa5;" horiz-adv-x="1052" d="M16 1458h168l344 -698l342 698h166l-321 -637h205v-110h-261l-53 -109v-106h314v-113h-314v-383h-157v383h-316v113h316v106l-54 109h-262v110h205z" />
<glyph unicode="&#xa8;" horiz-adv-x="1024" d="M221 1233v182h148v-182h-148zM655 1233v182h148v-182h-148z" />
<glyph unicode="&#xa9;" horiz-adv-x="1804" d="M160 729q0 154 58 289t158.5 235.5t236 158.5t288.5 58q154 0 289 -58t235.5 -158.5t158.5 -235.5t58 -289t-58 -289t-158.5 -235.5t-235.5 -158.5t-289 -58t-289 58t-235.5 158.5t-158.5 235.5t-58 289zM281 729q0 -129 48 -243.5t133 -200.5t197.5 -136.5t241.5 -50.5 t242.5 50.5t197.5 136.5t133.5 200.5t49.5 243.5t-49.5 243.5t-133.5 201t-197.5 136.5t-242.5 50t-241.5 -50t-197.5 -136.5t-133 -201t-48 -243.5zM547 729q0 90 23.5 167t69.5 132t113.5 87t157.5 32q86 0 145.5 -26.5t123.5 -82.5l-74 -73q-51 45 -94 62t-101 17 q-70 0 -118 -25.5t-76.5 -68.5t-41.5 -100t-13 -121q0 -66 13 -122t41.5 -99t77 -67.5t117.5 -24.5q57 0 100.5 16.5t94.5 61.5l74 -74q-59 -53 -121 -80t-148 -27q-90 0 -157.5 32t-113.5 87t-69.5 131t-23.5 166z" />
<glyph unicode="&#xab;" horiz-adv-x="1134" d="M82 549l430 430v-184l-246 -246l246 -248v-182zM545 549l430 430v-184l-248 -246l248 -248v-182z" />
<glyph unicode="&#xad;" horiz-adv-x="872" d="M156 483v138h561v-138h-561z" />
<glyph unicode="&#xae;" horiz-adv-x="1804" d="M160 729q0 154 58 289t158.5 235.5t236 158.5t288.5 58q154 0 289 -58t235.5 -158.5t158.5 -235.5t58 -289t-58 -289t-158.5 -235.5t-235.5 -158.5t-289 -58t-289 58t-235.5 158.5t-158.5 235.5t-58 289zM279 729q0 -131 49 -245.5t133 -200.5t197.5 -136.5t242.5 -50.5 t242.5 50.5t198.5 136.5t134.5 200.5t49.5 245.5t-49.5 246t-134.5 201t-198.5 136t-242.5 50t-242.5 -50t-197.5 -136t-133 -201t-49 -246zM659 324v813h277q53 0 99 -18.5t81 -51.5t55.5 -78t20.5 -96q0 -90 -49 -145.5t-125 -77.5l194 -346h-131l-186 331h-123v-331h-113 zM772 752h152q68 0 110.5 40t42.5 101t-43 102t-110 41h-152v-284z" />
<glyph unicode="&#xb4;" horiz-adv-x="1024" d="M412 1217l186 313h170l-215 -313h-141z" />
<glyph unicode="&#xb8;" horiz-adv-x="1024" d="M358 -442l146 305h137l-121 -305h-162z" />
<glyph unicode="&#xbb;" horiz-adv-x="1134" d="M160 119v182l248 248l-248 246v184l430 -430zM623 119v182l245 248l-245 246v184l430 -430z" />
<glyph unicode="&#x2c6;" horiz-adv-x="1024" d="M188 1217l256 313h139l258 -313h-141l-186 213l-185 -213h-141z" />
<glyph unicode="&#x2da;" horiz-adv-x="1024" d="M270 1407q0 49 19.5 93t52.5 77t77 52.5t93 19.5t93 -18.5t77 -51.5t52.5 -77t19.5 -95q0 -49 -19.5 -94t-52.5 -78t-77 -52.5t-93 -19.5t-93 19.5t-77 52.5t-52.5 78t-19.5 94zM371 1407q0 -59 41 -100t100 -41t100 41t41 100t-41 99t-100 40t-100 -40t-41 -99z" />
<glyph unicode="&#x2dc;" horiz-adv-x="1085" d="M213 1341q35 35 62.5 55.5t51 32t43 14.5t38.5 3q45 0 75.5 -12.5t69.5 -36.5q33 -18 58.5 -29.5t56.5 -11.5q12 0 23 2t25.5 8t32 19.5t39.5 35.5l76 -73q-35 -35 -62.5 -56.5t-51 -32t-43 -13.5t-37.5 -3q-43 0 -76 13.5t-70 35.5q-29 16 -56.5 28.5t-57.5 12.5 q-27 0 -51.5 -10t-69.5 -55z" />
<glyph unicode="&#x400;" horiz-adv-x="1228" d="M211 0v1458h905v-139h-749v-514h639v-139h-639v-527h749v-139h-905zM391 1913h170l186 -316h-141z" />
<glyph unicode="&#x401;" horiz-adv-x="1228" d="M211 0v1458h905v-139h-749v-514h639v-139h-639v-527h749v-139h-905zM352 1616v182h147v-182h-147zM786 1616v182h147v-182h-147z" />
<glyph unicode="&#x402;" horiz-adv-x="1523" d="M53 1319v139h998v-139h-484v-428h328q100 0 183 -30t142.5 -87t91 -139.5t31.5 -188.5t-31.5 -189t-91 -140.5t-142.5 -87t-183 -29.5h-84v137h68q147 0 228 75t81 232q0 158 -81 234t-228 76h-312v-754h-155v1319h-359z" />
<glyph unicode="&#x403;" horiz-adv-x="1165" d="M225 0v1458h877v-139h-721v-1319h-156zM545 1597l187 316h170l-216 -316h-141z" />
<glyph unicode="&#x404;" horiz-adv-x="1304" d="M156 729q0 125 3 215t17 157.5t44 121t81 104.5q68 68 159 105.5t206 37.5q199 0 333 -114.5t172 -319.5h-157q-29 137 -120 217t-228 80q-154 0 -254 -104q-31 -33 -51.5 -70t-31 -86t-14.5 -114.5t-4 -155.5h549v-137h-549q0 -94 3 -162t14.5 -118t31 -87t52.5 -70 q100 -104 254 -104q137 0 229 80t123 217h153q-39 -205 -174 -319.5t-331 -114.5q-115 0 -206 37.5t-159 105.5q-51 51 -81 104.5t-44 121t-17 157.5t-3 215z" />
<glyph unicode="&#x405;" horiz-adv-x="1204" d="M88 180l105 105q90 -90 182 -124t215 -34q162 0 254 70.5t92 199.5q0 119 -72 183q-16 14 -33.5 25t-39 19.5t-50 14.5t-67.5 12l-170 25q-172 27 -266 110q-113 100 -113 275q0 92 32.5 168t93 130t146.5 82.5t195 28.5q139 0 239.5 -38.5t194.5 -120.5l-100 -101 q-66 63 -146 95t-194 32q-147 0 -228.5 -74.5t-81.5 -197.5q0 -113 66 -170q35 -29 84 -47.5t106 -28.5l170 -26q100 -16 158 -38t107 -67q59 -51 91 -123t32 -164q0 -96 -36 -172.5t-101.5 -130t-159 -82t-207.5 -28.5q-82 0 -150.5 11t-129 33.5t-114 59.5t-104.5 88z" />
<glyph unicode="&#x406;" horiz-adv-x="577" d="M211 0v1458h156v-1458h-156z" />
<glyph unicode="&#x407;" horiz-adv-x="577" d="M0 1616v182h147v-182h-147zM211 0v1458h156v-1458h-156zM434 1616v182h147v-182h-147z" />
<glyph unicode="&#x408;" horiz-adv-x="1026" d="M47 119l105 104q39 -41 89 -68.5t140 -27.5q143 0 221 87t78 249v995h156v-1016q0 -104 -34 -189t-94.5 -143.5t-143.5 -90t-183 -31.5q-104 0 -185 31.5t-149 99.5z" />
<glyph unicode="&#x409;" horiz-adv-x="2099" d="M25 0v139h38q68 0 124.5 29t98.5 107.5t64.5 221t22.5 369.5v592h803v-600h393q100 0 183 -30.5t142.5 -87t91 -136.5t31.5 -176t-31.5 -175t-91 -135.5t-142.5 -87t-183 -30.5h-549v1319h-496v-500q0 -231 -27.5 -388t-81 -252t-133 -137t-184.5 -42h-73zM1176 139h376 q147 0 228.5 76t81.5 213q0 139 -81 215t-229 76h-376v-580z" />
<glyph unicode="&#x40a;" horiz-adv-x="2136" d="M211 0v1458h156v-600h690v600h155v-600h394q100 0 183 -30.5t142.5 -87t91 -136.5t31.5 -176t-31.5 -175t-91 -135.5t-142.5 -87t-183 -30.5h-549v719h-690v-719h-156zM1212 139h377q147 0 228 76t81 213q0 139 -80.5 215t-228.5 76h-377v-580z" />
<glyph unicode="&#x40b;" horiz-adv-x="1523" d="M53 1319v139h998v-139h-484v-428h328q100 0 183 -31t142.5 -86t91 -134t31.5 -175v-465h-155v465q0 137 -81 213t-228 76h-312v-754h-155v1319h-359z" />
<glyph unicode="&#x40c;" horiz-adv-x="1251" d="M219 0v1458h156v-1458h-156zM377 762l624 696h197l-639 -692l694 -766h-206zM567 1597l187 316h170l-216 -316h-141z" />
<glyph unicode="&#x40d;" horiz-adv-x="1466" d="M211 0v1458h156v-1188l741 1188h147v-1458h-155v1190l-742 -1190h-147zM455 1913h170l186 -316h-141z" />
<glyph unicode="&#x40e;" horiz-adv-x="1118" d="M20 1458h166l394 -862l354 862h166l-529 -1231q-43 -100 -110.5 -163.5t-175.5 -63.5h-127v139h92q76 0 118 35t74 111l60 137zM281 1808h131q12 -152 168 -151q156 0 168 151h131q-10 -137 -90 -197.5t-209 -60.5t-209 60.5t-90 197.5z" />
<glyph unicode="&#x40f;" horiz-adv-x="1425" d="M211 0v1458h156v-1319h690v1319h155v-1458h-421v-352h-154v352h-426z" />
<glyph unicode="&#x410;" horiz-adv-x="1251" d="M25 0l536 1458h131l535 -1458h-166l-117 330h-637l-117 -330h-165zM354 465h545l-270 770z" />
<glyph unicode="&#x411;" horiz-adv-x="1343" d="M211 0v1458h909v-139h-753v-461h395q102 0 185 -30.5t141.5 -87t90 -136.5t31.5 -176t-31.5 -175t-90 -135.5t-141.5 -87t-185 -30.5h-551zM367 139h381q147 0 227 76t80 213q0 139 -80 215t-227 76h-381v-580z" />
<glyph unicode="&#x412;" horiz-adv-x="1368" d="M211 0v1458h549q94 0 174 -26.5t136 -76.5t88 -122t32 -164q0 -117 -61.5 -201t-153.5 -118q104 -39 170.5 -127.5t66.5 -219.5q0 -98 -31.5 -173.5t-89 -127t-137.5 -77t-176 -25.5h-567zM367 139h397q135 0 214 73t79 196t-79 194.5t-214 71.5h-397v-535zM367 813h381 q61 0 113 15.5t90 46t60.5 78.5t22.5 114t-22.5 113t-60.5 77.5t-90 46t-113 15.5h-381v-506z" />
<glyph unicode="&#x413;" horiz-adv-x="1165" d="M225 0v1458h877v-139h-721v-1319h-156z" />
<glyph unicode="&#x414;" horiz-adv-x="1421" d="M53 139h129q100 158 142.5 358.5t42.5 469.5v491h796v-1319h174v-491h-153v352h-977v-352h-154v491zM356 139h652v1180h-494v-449q0 -205 -35 -391t-123 -340z" />
<glyph unicode="&#x415;" horiz-adv-x="1228" d="M211 0v1458h905v-139h-749v-514h639v-139h-639v-527h749v-139h-905z" />
<glyph unicode="&#x416;" horiz-adv-x="1847" d="M-2 0l668 766l-615 692h197l596 -696l-641 -762h-205zM846 0v1458h155v-1458h-155zM1004 762l593 696h197l-612 -692l667 -766h-204z" />
<glyph unicode="&#x417;" horiz-adv-x="1261" d="M125 422h154q29 -135 121 -216t229 -81q70 0 128 19.5t101 55.5t67.5 88t24.5 118q0 137 -76.5 204.5t-220.5 67.5h-184v135h190q129 0 199 67.5t70 196.5q0 125 -81 191.5t-216 66.5q-137 0 -227.5 -82t-120.5 -217h-156q18 102 62 183t110 136.5t151 85t183 29.5 t180 -26.5t142.5 -77.5t94 -123t33.5 -160q0 -236 -211 -331q115 -41 174.5 -128t59.5 -223q0 -96 -37 -171.5t-102.5 -130t-153.5 -83t-192 -28.5q-94 0 -177.5 29.5t-148 85t-108.5 136t-62 183.5z" />
<glyph unicode="&#x418;" horiz-adv-x="1466" d="M211 0v1458h156v-1188l741 1188h147v-1458h-155v1190l-742 -1190h-147z" />
<glyph unicode="&#x419;" horiz-adv-x="1466" d="M211 0v1458h156v-1188l741 1188h147v-1458h-155v1190l-742 -1190h-147zM434 1808h131q12 -152 168 -151q156 0 168 151h131q-10 -137 -90 -197.5t-209 -60.5t-209 60.5t-90 197.5z" />
<glyph unicode="&#x41a;" horiz-adv-x="1251" d="M219 0v1458h156v-1458h-156zM377 762l624 696h197l-639 -692l694 -766h-206z" />
<glyph unicode="&#x41b;" horiz-adv-x="1386" d="M25 0v139h38q68 0 124.5 29t98.5 107.5t64.5 221t22.5 369.5v592h803v-1458h-156v1319h-496v-500q0 -231 -27.5 -388t-81 -252t-133 -137t-184.5 -42h-73z" />
<glyph unicode="&#x41c;" horiz-adv-x="1671" d="M211 0v1458h156l475 -1034l463 1034h155v-1458h-155v1108l-400 -879h-133l-405 879v-1108h-156z" />
<glyph unicode="&#x41d;" horiz-adv-x="1425" d="M211 0v1458h156v-653h692v653h155v-1458h-155v666h-692v-666h-156z" />
<glyph unicode="&#x41e;" horiz-adv-x="1331" d="M156 729q0 125 3 215t17 157.5t44 121t81 104.5q68 68 159 105.5t206 37.5t205 -37.5t157 -105.5q51 -51 81 -104.5t44 -121t18.5 -157.5t4.5 -215t-4.5 -215t-18.5 -157.5t-44 -121t-81 -104.5q-68 -68 -158 -105.5t-204 -37.5q-115 0 -206 37.5t-159 105.5 q-51 51 -81 104.5t-44 121t-17 157.5t-3 215zM311 729q0 -113 3 -191.5t13.5 -135t31 -97.5t55.5 -76q102 -102 252 -102t252 102q35 35 55 76t30.5 97.5t13.5 135t3 191.5t-3 191.5t-13.5 135t-31 97.5t-54.5 76q-102 102 -252 102t-252 -102q-35 -35 -55.5 -76t-31 -97.5 t-13.5 -135t-3 -191.5z" />
<glyph unicode="&#x41f;" horiz-adv-x="1425" d="M211 0v1458h1001v-1458h-155v1319h-690v-1319h-156z" />
<glyph unicode="&#x420;" horiz-adv-x="1290" d="M211 0v1458h543q98 0 181 -30.5t143.5 -86t93 -134.5t32.5 -177t-32.5 -177t-93 -135t-143.5 -87t-181 -31h-387v-600h-156zM367 739h374q137 0 222.5 73t85.5 218t-85 217t-223 72h-374v-580z" />
<glyph unicode="&#x421;" horiz-adv-x="1304" d="M156 729q0 125 3 215t17 157.5t44 121t81 104.5q68 68 159 105.5t206 37.5q199 0 333 -114.5t172 -319.5h-159q-29 135 -119 215t-227 80q-150 0 -252 -102q-35 -35 -55.5 -76t-31 -97.5t-13.5 -135t-3 -191.5t3 -191.5t13.5 -135t31 -97.5t55.5 -76q102 -102 252 -102 q137 0 229 80t121 215h155q-39 -205 -173 -319.5t-332 -114.5q-115 0 -206 37.5t-159 105.5q-51 51 -81 104.5t-44 121t-17 157.5t-3 215z" />
<glyph unicode="&#x422;" horiz-adv-x="1122" d="M61 1319v139h1000v-139h-422v-1319h-156v1319h-422z" />
<glyph unicode="&#x423;" horiz-adv-x="1118" d="M20 1458h166l394 -862l354 862h166l-529 -1231q-43 -100 -110.5 -163.5t-175.5 -63.5h-127v139h92q76 0 118 35t74 111l60 137z" />
<glyph unicode="&#x424;" horiz-adv-x="1595" d="M113 782q0 287 145 434.5t463 157.5v137h156v-137q317 -10 461.5 -157.5t144.5 -434.5t-142.5 -439.5t-463.5 -162.5v-188h-156v188q-162 6 -276.5 47t-188.5 117t-108.5 185.5t-34.5 252.5zM268 776q0 -106 22.5 -191t76 -144.5t139.5 -92.5t215 -35v928 q-133 -4 -220 -37t-138.5 -92t-73 -144t-21.5 -192zM877 313q127 2 214 35t139 92.5t74.5 144.5t22.5 191t-21.5 191.5t-72.5 144.5t-138 92t-218 37v-928z" />
<glyph unicode="&#x425;" horiz-adv-x="1128" d="M31 0l446 748l-418 710h181l323 -575l324 575h180l-420 -710l451 -748h-180l-355 612l-356 -612h-176z" />
<glyph unicode="&#x426;" horiz-adv-x="1470" d="M211 0v1458h156v-1319h690v1319h155v-1319h174v-491h-153v352h-1022z" />
<glyph unicode="&#x427;" horiz-adv-x="1320" d="M156 905v553h155v-524q0 -80 23.5 -129t61.5 -77t86 -38t100 -10q39 0 89 5t101 13.5t99.5 17.5t82.5 15v727h156v-1458h-156v596q-35 -6 -84 -16.5t-106 -18.5t-114.5 -14t-106.5 -6q-74 0 -144.5 18.5t-124 61.5t-86 112.5t-32.5 171.5z" />
<glyph unicode="&#x428;" horiz-adv-x="2041" d="M211 0v1458h156v-1319h575v1319h158v-1319h575v1319h156v-1458h-1620z" />
<glyph unicode="&#x429;" horiz-adv-x="2086" d="M211 0v1458h156v-1319h575v1319h158v-1319h575v1319h156v-1319h172v-491h-154v352h-1638z" />
<glyph unicode="&#x42a;" horiz-adv-x="1488" d="M61 1319v139h506v-600h391q100 0 183.5 -30.5t142.5 -87t91 -136.5t32 -176t-32 -175t-91 -135.5t-142 -87t-184 -30.5h-548v1319h-349zM567 139h377q145 0 226 76t81 213q0 139 -80.5 215t-226.5 76h-377v-580z" />
<glyph unicode="&#x42b;" horiz-adv-x="1769" d="M211 0v1458h156v-600h391q102 0 185 -30.5t142.5 -87t91 -136.5t31.5 -176t-32.5 -175t-91 -135.5t-142.5 -87t-184 -30.5h-547zM367 139h376q147 0 227.5 76t80.5 213q0 139 -80 215t-228 76h-376v-580zM1403 0v1458h156v-1458h-156z" />
<glyph unicode="&#x42c;" horiz-adv-x="1290" d="M211 0v1458h156v-600h391q102 0 185 -30.5t142.5 -87t91 -136.5t31.5 -176t-32.5 -175t-91 -135.5t-142.5 -87t-184 -30.5h-547zM367 139h376q147 0 227.5 76t80.5 213q0 139 -80 215t-228 76h-376v-580z" />
<glyph unicode="&#x42d;" horiz-adv-x="1304" d="M133 422h156q29 -135 121 -215t229 -80q150 0 252 102q33 33 52.5 70t30.5 87t15 117.5t4 162.5h-551v137h551q0 90 -5 155.5t-15 114.5t-30.5 86t-51.5 70q-102 102 -252 102q-137 0 -227 -80t-119 -215h-160q39 205 173 319.5t333 114.5q115 0 206 -37.5t159 -105.5 q51 -51 80.5 -104.5t44 -121t17.5 -157.5t3 -215t-3 -215t-17.5 -157.5t-44 -121t-80.5 -104.5q-68 -68 -159 -105.5t-206 -37.5q-199 0 -333 114.5t-173 319.5z" />
<glyph unicode="&#x42e;" horiz-adv-x="1849" d="M211 0v1458h156v-653h309q0 104 5 181t20.5 136.5t44 108.5t75.5 96q68 68 159 105.5t206 37.5t205 -37.5t157 -105.5q53 -53 83 -106.5t44.5 -121t17.5 -156.5t3 -214t-3 -214t-17.5 -156.5t-44 -121t-83.5 -106.5q-68 -68 -158 -105.5t-204 -37.5q-115 0 -206 37.5 t-159 105.5q-49 47 -76.5 96t-43 110.5t-20.5 140.5t-5 188h-309v-666h-156zM831 729q0 -113 3.5 -191.5t13.5 -135t30.5 -97.5t55.5 -76q49 -51 113.5 -76.5t138.5 -25.5q150 0 252 102q35 35 55 76t30.5 97.5t13.5 135t3 191.5t-3 191.5t-13.5 135t-30.5 97.5t-55 76 q-102 102 -252 102q-74 0 -138.5 -25.5t-113.5 -76.5q-35 -35 -55.5 -76t-30.5 -97.5t-13.5 -135t-3.5 -191.5z" />
<glyph unicode="&#x42f;" horiz-adv-x="1341" d="M115 0l336 623q-145 35 -229.5 142t-84.5 265q0 98 33 177t91 134.5t141 86t186 30.5h542v-1458h-155v600h-361l-317 -600h-182zM293 1030q0 -137 81 -214t228 -77h373v582h-373q-147 0 -228 -77t-81 -214z" />
<glyph unicode="&#x430;" horiz-adv-x="1077" d="M104 285q0 135 90.5 212.5t260.5 77.5h301v97q0 111 -58.5 166t-199.5 55q-96 0 -151.5 -26.5t-102.5 -90.5l-101 92q66 88 149 120t208 32q205 0 304 -86t99 -250v-684h-147v96q-59 -59 -125 -83.5t-166 -24.5q-104 0 -168 20.5t-117 71.5q-39 37 -57.5 91t-18.5 114z M248 287q0 -88 55 -130t178 -42q63 0 118.5 11t105.5 56q51 49 51 174v109h-281q-227 0 -227 -178z" />
<glyph unicode="&#x431;" horiz-adv-x="1091" d="M145 702q0 150 4.5 249.5t18.5 168t43 115.5t76 92q55 53 127.5 80t152.5 39t163 14t159 8v-133q-51 -6 -119 -8t-137.5 -10t-134 -26.5t-107.5 -55.5q-72 -61 -92 -151.5t-20 -219.5q37 68 120.5 109t182.5 41q156 0 252 -90q68 -63 99.5 -171t31.5 -247 q0 -152 -29 -247t-94 -161q-51 -53 -124 -81.5t-159 -28.5q-141 0 -238.5 70.5t-138.5 197.5q-12 41 -20 95.5t-11.5 114.5t-4.5 120.5t-1 115.5zM291 500q0 -123 21.5 -192.5t64.5 -114.5q35 -35 82 -54.5t100 -19.5q51 0 98.5 19.5t81.5 54.5q41 45 60.5 114.5t19.5 188.5 q0 123 -17.5 196.5t-60.5 118.5q-35 35 -82 56.5t-100 21.5q-111 0 -184 -78q-41 -43 -62.5 -116.5t-21.5 -194.5z" />
<glyph unicode="&#x432;" horiz-adv-x="1103" d="M186 0v1008h467q135 0 216 -72t81 -193q0 -82 -41 -137t-118 -84q82 -31 129 -91t47 -152q0 -129 -80 -204t-221 -75h-480zM332 127h307q86 0 134 45t48 121t-48 121t-134 45h-307v-332zM332 580h295q88 0 133 39.5t45 111.5t-46 111t-132 39h-295v-301z" />
<glyph unicode="&#x433;" horiz-adv-x="854" d="M193 0v1008h638v-127h-491v-881h-147z" />
<glyph unicode="&#x434;" horiz-adv-x="1138" d="M37 127h119q29 63 53 126.5t41.5 142.5t28 180.5t10.5 238.5v193h633v-881h149v-428h-143v301h-750v-301h-141v428zM315 127h459v754h-344v-191q0 -100 -9 -179t-24.5 -145.5t-36 -125t-45.5 -113.5z" />
<glyph unicode="&#x435;" horiz-adv-x="1085" d="M129 504q0 248 110.5 382t303.5 134q199 0 306 -130t107 -360v-65h-680q0 -166 75 -257t222 -91q88 0 146.5 27.5t118.5 86.5l100 -88q-39 -39 -77 -67.5t-82 -48t-95 -29.5t-115 -10q-100 0 -182 30.5t-139.5 94t-88 161t-30.5 230.5zM276 575h535q-2 31 -4 53.5t-5 41 t-9.5 36t-14.5 37.5q-33 70 -93 111t-142 41t-142.5 -41t-93.5 -111q-10 -20 -15 -37.5t-8 -36t-4 -41t-4 -53.5z" />
<glyph unicode="&#x436;" horiz-adv-x="1468" d="M12 0l473 532l-432 476h180l426 -486l-460 -522h-187zM662 0v1008h145v-1008h-145zM809 522l428 486h178l-432 -476l473 -532h-186z" />
<glyph unicode="&#x437;" horiz-adv-x="987" d="M66 133l92 96q68 -63 134 -87.5t161 -24.5q45 0 90 11t82 33.5t59.5 55.5t22.5 74q0 86 -57.5 127t-149.5 41h-148v123h150q84 0 136 42t52 119q0 78 -61.5 116t-165.5 38q-150 0 -270 -84l-84 98q84 59 174 84t194 25q74 0 139.5 -17.5t113.5 -52.5t76 -86t28 -116 q0 -76 -41 -136.5t-119 -89.5q80 -25 128 -88t48 -149q0 -68 -31 -123.5t-83 -93t-121.5 -58t-145.5 -20.5q-123 0 -218 30.5t-185 112.5z" />
<glyph unicode="&#x438;" horiz-adv-x="1181" d="M186 0v1008h146v-777l518 777h147v-1008h-147v780l-518 -780h-146z" />
<glyph unicode="&#x439;" horiz-adv-x="1181" d="M186 0v1008h146v-777l518 777h147v-1008h-147v780l-518 -780h-146zM293 1442h131q12 -154 168 -154t168 154h131q-10 -139 -90 -198.5t-209 -59.5t-209 59.5t-90 198.5z" />
<glyph unicode="&#x43a;" horiz-adv-x="1021" d="M193 0v1008h147v-1008h-147zM342 522l444 486h183l-453 -476l494 -532h-191z" />
<glyph unicode="&#x43b;" horiz-adv-x="1118" d="M43 0v127h33q33 0 70.5 11.5t69.5 55.5t52.5 134t20.5 247v433h645v-1008h-148v881h-356v-349q0 -158 -23.5 -261t-66.5 -163.5t-101.5 -84t-127.5 -23.5h-68z" />
<glyph unicode="&#x43c;" horiz-adv-x="1343" d="M186 0v1008h146l342 -678l338 678h145v-1008h-147v717l-281 -557h-113l-284 557v-717h-146z" />
<glyph unicode="&#x43d;" horiz-adv-x="1148" d="M184 0v1008h146v-424h487v424h148v-1008h-148v457h-487v-457h-146z" />
<glyph unicode="&#x43e;" horiz-adv-x="1085" d="M131 504q0 117 22.5 220t100.5 181q53 53 125 84t164 31t163.5 -31t124.5 -84q78 -78 100.5 -181t22.5 -220t-23.5 -220.5t-99.5 -181.5q-53 -53 -124.5 -83.5t-163.5 -30.5t-164 30.5t-125 83.5q-39 39 -62.5 85t-37 96.5t-18.5 105.5t-5 115zM279 504q0 -43 2 -86 t10 -84t24.5 -77t44.5 -64q74 -74 183 -74q111 0 184 74q55 57 67.5 141t12.5 170t-12.5 171t-67.5 140q-74 74 -184 74q-109 0 -183 -74q-55 -55 -68 -140t-13 -171z" />
<glyph unicode="&#x43f;" horiz-adv-x="1138" d="M184 0v1008h781v-1008h-148v881h-487v-881h-146z" />
<glyph unicode="&#x440;" horiz-adv-x="1116" d="M184 -451v1459h148v-119q63 78 130.5 104.5t153.5 26.5q78 0 141.5 -23.5t104.5 -64.5q37 -37 61.5 -86t38 -104.5t18.5 -116t5 -121.5q0 -123 -23.5 -236.5t-99.5 -191.5q-41 -41 -104.5 -64.5t-141.5 -23.5q-84 0 -152.5 26.5t-131.5 104.5v-570h-148zM332 504 q0 -74 8 -143.5t35.5 -123t77 -86t133.5 -32.5q82 0 132 32.5t76.5 86t35 123t8.5 143.5t-8.5 143.5t-35 122.5t-76.5 86t-132 33q-84 0 -133.5 -33t-77 -86t-35.5 -122.5t-8 -143.5z" />
<glyph unicode="&#x441;" horiz-adv-x="1003" d="M129 504q0 129 34 225t94 160.5t141 97.5t177 33q104 0 179 -33t153 -117l-100 -94q-57 63 -108.5 88t-123.5 25q-74 0 -133 -29t-100 -86q-35 -49 -50.5 -111.5t-15.5 -158.5t15.5 -158.5t50.5 -112.5q41 -57 100.5 -85.5t132.5 -28.5q72 0 123.5 25.5t108.5 88.5 l100 -96q-78 -84 -152.5 -116.5t-179.5 -32.5q-96 0 -177 31.5t-141 96t-94 162t-34 226.5z" />
<glyph unicode="&#x442;" horiz-adv-x="866" d="M23 881v127h823v-127h-330v-881h-147v881h-346z" />
<glyph unicode="&#x443;" horiz-adv-x="915" d="M23 1008h159l277 -809l274 809h160l-459 -1252q-29 -80 -72 -118q-41 -39 -92 -54.5t-104 -15.5h-64v131h45q76 0 109 27.5t57 97.5l72 196z" />
<glyph unicode="&#x444;" horiz-adv-x="1413" d="M123 506q0 248 134 375t376 139v438h147v-438q242 -12 376 -139t134 -375q0 -250 -135 -378t-375 -140v-439h-147v439q-240 12 -375 140t-135 378zM270 504q0 -174 91.5 -277.5t271.5 -107.5v770q-96 -4 -165 -34t-113 -80t-64.5 -119.5t-20.5 -151.5zM780 119 q180 4 271.5 107.5t91.5 277.5q0 82 -20.5 151.5t-63.5 119.5t-111.5 80t-167.5 34v-770z" />
<glyph unicode="&#x445;" horiz-adv-x="978" d="M68 0l342 514l-328 494h178l232 -373l227 373h178l-328 -494l342 -514h-178l-241 391l-246 -391h-178z" />
<glyph unicode="&#x446;" horiz-adv-x="1185" d="M186 0v1008h146v-881h487v881h148v-881h151v-428h-143v301h-789z" />
<glyph unicode="&#x447;" horiz-adv-x="1071" d="M143 641v367h148v-340q0 -100 44 -140.5t130 -40.5q78 0 149.5 11.5t124.5 21.5v488h148v-1008h-148v393q-57 -12 -136 -25.5t-167 -13.5q-133 0 -213 69t-80 218z" />
<glyph unicode="&#x448;" horiz-adv-x="1640" d="M186 0v1008h146v-881h413v881h148v-881h414v881h147v-1008h-1268z" />
<glyph unicode="&#x449;" horiz-adv-x="1671" d="M186 0v1008h146v-881h413v881h148v-881h414v881h147v-881h152v-428h-144v301h-1276z" />
<glyph unicode="&#x44a;" horiz-adv-x="1153" d="M23 881v127h426v-400h303q145 0 232 -83t87 -222q0 -137 -87 -220t-232 -83h-449v881h-280zM449 127h286q92 0 140.5 45t48.5 131t-48.5 131t-140.5 45h-286v-352z" />
<glyph unicode="&#x44b;" horiz-adv-x="1470" d="M186 0v1008h146v-400h303q145 0 232 -83t87 -222q0 -137 -87 -220t-232 -83h-449zM332 127h286q92 0 140.5 45t48.5 131t-48 131t-141 45h-286v-352zM1116 0v1008h148v-1008h-148z" />
<glyph unicode="&#x44c;" horiz-adv-x="1036" d="M186 0v1008h146v-400h303q145 0 232 -83t87 -222q0 -137 -87 -220t-232 -83h-449zM332 127h286q92 0 140.5 45t48.5 131t-48 131t-141 45h-286v-352z" />
<glyph unicode="&#x44d;" horiz-adv-x="1003" d="M96 137l99 94q53 -57 103 -85.5t128 -28.5q80 0 136 27.5t92 74.5t53.5 110.5t19.5 135.5h-414v110h412q-4 68 -24.5 125.5t-57.5 100.5t-91 66.5t-128 23.5q-76 0 -126 -30t-103 -85l-99 94q37 39 72 68t73 47.5t82 26.5t99 8q213 0 331.5 -136t118.5 -378 q0 -246 -118.5 -382t-331.5 -136q-55 0 -99 8t-82 26.5t-73 47t-72 67.5z" />
<glyph unicode="&#x44e;" horiz-adv-x="1490" d="M186 0v1008h146v-428h207q4 94 29.5 177t90.5 148q53 53 125 84t164 31t164 -31t125 -84q78 -78 100.5 -181t22.5 -220t-23.5 -220.5t-99.5 -181.5q-53 -53 -125 -83.5t-164 -30.5t-163.5 30.5t-125.5 83.5q-70 70 -94 159t-28 194h-205v-455h-146zM684 504q0 -43 2 -86 t10.5 -84t24.5 -77t45 -64q70 -74 182 -74q111 0 185 74q55 57 67 141t12 170t-12 171t-67 140q-74 74 -185 74q-109 0 -182 -74q-55 -55 -68.5 -140t-13.5 -171z" />
<glyph unicode="&#x44f;" horiz-adv-x="1079" d="M117 0l235 414q-109 23 -172 99.5t-63 193.5q0 135 87 218t230 83h459v-1008h-145v395h-242l-219 -395h-170zM262 700q0 -88 51.5 -136t149.5 -48h285v371h-285q-98 0 -149.5 -48t-51.5 -139z" />
<glyph unicode="&#x450;" horiz-adv-x="1085" d="M129 504q0 248 110.5 382t303.5 134q199 0 306 -130t107 -360v-65h-680q0 -166 75 -257t222 -91q88 0 146.5 27.5t118.5 86.5l100 -88q-39 -39 -77 -67.5t-82 -48t-95 -29.5t-115 -10q-100 0 -182 30.5t-139.5 94t-88 161t-30.5 230.5zM276 575h535q-2 31 -4 53.5t-5 41 t-9.5 36t-14.5 37.5q-33 70 -93 111t-142 41t-142.5 -41t-93.5 -111q-10 -20 -15 -37.5t-8 -36t-4 -41t-4 -53.5zM295 1530h170l187 -313h-142z" />
<glyph unicode="&#x451;" horiz-adv-x="1085" d="M129 504q0 248 110.5 382t303.5 134q199 0 306 -130t107 -360v-65h-680q0 -166 75 -257t222 -91q88 0 146.5 27.5t118.5 86.5l100 -88q-39 -39 -77 -67.5t-82 -48t-95 -29.5t-115 -10q-100 0 -182 30.5t-139.5 94t-88 161t-30.5 230.5zM258 1233v182h147v-182h-147z M276 575h535q-2 31 -4 53.5t-5 41t-9.5 36t-14.5 37.5q-33 70 -93 111t-142 41t-142.5 -41t-93.5 -111q-10 -20 -15 -37.5t-8 -36t-4 -41t-4 -53.5zM692 1233v182h148v-182h-148z" />
<glyph unicode="&#x452;" horiz-adv-x="1150" d="M68 1151v111h118v196h146v-196h508v-111h-508v-266q66 66 133 95.5t160 29.5q166 0 259 -100.5t93 -274.5v-778q0 -61 -17.5 -117.5t-53.5 -99.5t-92 -68t-136 -25h-98v127h73q86 0 131 55.5t45 133.5v747q0 129 -59 199t-178 70t-189.5 -71t-70.5 -198v-610h-146v1151 h-118z" />
<glyph unicode="&#x453;" horiz-adv-x="854" d="M193 0v1008h638v-127h-491v-881h-147zM350 1217l187 313h170l-215 -313h-142z" />
<glyph unicode="&#x454;" horiz-adv-x="1003" d="M129 506q0 242 120 378t331 136q55 0 99 -8t82 -26.5t72.5 -47.5t73.5 -68l-98 -94q-53 55 -103.5 85t-127.5 30q-72 0 -126.5 -23.5t-91 -66.5t-57 -100.5t-24.5 -125.5h428v-110h-431q2 -72 19.5 -135.5t53.5 -110.5t92.5 -74.5t136.5 -27.5q78 0 128 28.5t103 85.5 l98 -94q-37 -39 -71.5 -67.5t-73.5 -47t-83 -26.5t-99 -8q-213 0 -332 136t-119 382z" />
<glyph unicode="&#x455;" horiz-adv-x="1015" d="M88 133l98 98q59 -61 139.5 -88.5t174.5 -27.5q127 0 197.5 44t70.5 134q0 68 -39 103.5t-129 43.5l-166 15q-147 12 -224 77.5t-77 192.5q0 70 27.5 124t77 92t117 58.5t149.5 20.5q111 0 202 -26.5t160 -82.5l-96 -96q-53 41 -121.5 60.5t-146.5 19.5 q-111 0 -168.5 -44t-57.5 -122q0 -68 43 -102.5t138 -44.5l157 -15q66 -6 121.5 -22.5t94 -48t60 -80.5t21.5 -121q0 -145 -112.5 -226t-296.5 -81q-129 0 -230.5 32.5t-183.5 112.5z" />
<glyph unicode="&#x456;" horiz-adv-x="518" d="M176 1294v166h166v-166h-166zM184 0v1008h148v-1008h-148z" />
<glyph unicode="&#x457;" horiz-adv-x="518" d="M-29 1233v182h147v-182h-147zM184 0v1008h148v-1008h-148zM405 1233v182h148v-182h-148z" />
<glyph unicode="&#x458;" horiz-adv-x="518" d="M-31 -324h80q78 0 106.5 37t28.5 111v1184h148v-1190q0 -57 -15.5 -106.5t-47 -86.5t-80 -57.5t-113.5 -20.5h-107v129zM176 1294v166h166v-166h-166z" />
<glyph unicode="&#x459;" horiz-adv-x="1640" d="M43 0v127h33q33 0 70.5 11.5t69.5 55.5t52.5 134t20.5 247v433h647v-400h303q145 0 232.5 -83t87.5 -222q0 -137 -87.5 -220t-232.5 -83h-448v881h-361v-349q0 -158 -23.5 -261t-66.5 -163.5t-101.5 -84t-127.5 -23.5h-68zM936 127h287q92 0 140 45t48 131t-48 131 t-140 45h-287v-352z" />
<glyph unicode="&#x45a;" horiz-adv-x="1671" d="M186 0v1008h146v-400h487v400h148v-400h303q145 0 232 -83t87 -222q0 -137 -87 -220t-232 -83h-451v479h-487v-479h-146zM967 127h286q92 0 140.5 45t48.5 131t-48 131t-141 45h-286v-352z" />
<glyph unicode="&#x45b;" horiz-adv-x="1150" d="M68 1151v111h118v196h146v-196h508v-111h-508v-266q66 66 129 95.5t155 29.5q166 0 263.5 -101.5t97.5 -273.5v-635h-148v610q0 129 -63.5 199t-181.5 70q-119 0 -185.5 -71t-66.5 -198v-610h-146v1151h-118z" />
<glyph unicode="&#x45c;" horiz-adv-x="1021" d="M193 0v1008h147v-1008h-147zM342 522l444 486h183l-453 -476l494 -532h-191zM436 1217l187 313h170l-215 -313h-142z" />
<glyph unicode="&#x45d;" horiz-adv-x="1181" d="M186 0v1008h146v-777l518 777h147v-1008h-147v780l-518 -780h-146zM315 1530h170l187 -313h-142z" />
<glyph unicode="&#x45e;" horiz-adv-x="915" d="M23 1008h159l277 -809l274 809h160l-459 -1252q-29 -80 -72 -118q-41 -39 -92 -54.5t-104 -15.5h-64v131h45q76 0 109 27.5t57 97.5l72 196zM162 1442h131q12 -154 168 -154t168 154h131q-10 -139 -90 -198.5t-209 -59.5t-209 59.5t-90 198.5z" />
<glyph unicode="&#x45f;" horiz-adv-x="1153" d="M186 0v1008h146v-881h487v881h148v-1008h-320v-301h-143v301h-318z" />
<glyph unicode="&#x462;" horiz-adv-x="1318" d="M80 1130v121h160v207h155v-207h332v-121h-332v-272h391q102 0 185.5 -30.5t143 -87t91 -136.5t31.5 -176t-33 -175t-91 -135.5t-142 -87t-185 -30.5h-546v1130h-160zM395 139h377q147 0 227 76t80 213q0 139 -79.5 215t-227.5 76h-377v-580z" />
<glyph unicode="&#x463;" horiz-adv-x="1036" d="M47 799v98h139v111h146v-111h170v-98h-170v-191h303q145 0 232 -83t87 -222q0 -137 -87 -220t-232 -83h-449v799h-139zM332 127h286q92 0 140.5 45t48.5 131t-48 131t-141 45h-286v-352z" />
<glyph unicode="&#x472;" horiz-adv-x="1331" d="M156 729q0 125 3 215t17 157.5t44 121t81 104.5q68 68 159 105.5t206 37.5t205 -37.5t157 -105.5q53 -53 83 -106.5t44 -121t17.5 -156.5t3.5 -214t-3.5 -214t-17.5 -156.5t-44 -121t-83 -106.5q-68 -68 -158 -105.5t-204 -37.5q-115 0 -206 37.5t-159 105.5 q-51 51 -81 104.5t-44 121t-17 157.5t-3 215zM311 664q0 -94 4 -162t15.5 -117t31 -86t52.5 -70q49 -51 113.5 -76.5t138.5 -25.5q150 0 252 102q31 33 51 70t30.5 86t15.5 116.5t5 162.5h-709zM311 801h709q0 92 -5 157.5t-15.5 114.5t-31 86t-50.5 70q-102 102 -252 102 q-74 0 -138.5 -25.5t-113.5 -76.5q-31 -33 -51.5 -70t-30.5 -86t-15.5 -114.5t-5.5 -157.5z" />
<glyph unicode="&#x473;" horiz-adv-x="1085" d="M131 504q0 57 5 113.5t18.5 106.5t37 96t62.5 85q53 53 125 84t164 31t163.5 -31t124.5 -84q76 -78 99.5 -181t23.5 -220t-23.5 -220.5t-99.5 -181.5q-53 -53 -124.5 -83.5t-163.5 -30.5t-164 30.5t-125 83.5q-39 39 -62.5 85t-37 96.5t-18.5 105.5t-5 115zM279 465 q2 -78 17 -150.5t64 -121.5q74 -74 183 -74q110 0 184 74q49 49 63.5 121.5t16.5 150.5h-528zM279 575h526q-4 68 -19.5 131.5t-58.5 108.5q-74 74 -184 74q-109 0 -183 -74q-45 -45 -61 -108.5t-20 -131.5z" />
<glyph unicode="&#x474;" horiz-adv-x="1118" d="M16 1458h164l379 -1179l305 952q35 104 105.5 165.5t181.5 61.5h127v-139h-76q-76 0 -121 -34t-71 -111l-387 -1174h-127z" />
<glyph unicode="&#x475;" horiz-adv-x="915" d="M23 1008h159l275 -809l213 620q66 188 268 189h63v-131h-36q-35 0 -60.5 -5.5t-44 -19.5t-33 -39t-28.5 -61l-277 -752h-131z" />
<glyph unicode="&#x490;" horiz-adv-x="1165" d="M225 0v1458h723v352h154v-491h-721v-1319h-156z" />
<glyph unicode="&#x491;" horiz-adv-x="854" d="M193 0v1008h495v290h143v-417h-491v-881h-147z" />
<glyph unicode="&#x492;" horiz-adv-x="1179" d="M80 676v121h160v661h876v-139h-721v-522h332v-121h-332v-676h-155v676h-160z" />
<glyph unicode="&#x493;" horiz-adv-x="854" d="M53 504v98h140v406h638v-127h-491v-279h168v-98h-168v-504h-147v504h-140z" />
<glyph unicode="&#x496;" horiz-adv-x="1847" d="M-2 0l668 766l-615 692h197l596 -696l-641 -762h-205zM846 0v1458h155v-1458h-155zM1004 762l593 696h197l-612 -692l544 -627h123v-491h-153v352h-51z" />
<glyph unicode="&#x497;" horiz-adv-x="1464" d="M12 0l473 532l-432 476h180l426 -486l-460 -522h-187zM662 0v1008h145v-1008h-145zM809 522l428 486h178l-432 -476l360 -405h113v-428h-143v301h-43z" />
<glyph unicode="&#x49a;" horiz-adv-x="1249" d="M219 0v1458h156v-1458h-156zM377 762l624 696h197l-639 -692l567 -627h127v-491h-153v352h-53z" />
<glyph unicode="&#x49b;" horiz-adv-x="1019" d="M193 0v1008h147v-1008h-147zM342 522l444 486h183l-453 -476l375 -405h119v-428h-144v301h-47z" />
<glyph unicode="&#x49c;" horiz-adv-x="1355" d="M219 0v1458h156v-637h88v320h129v-320h55l463 637h195l-527 -700l580 -758h-203l-504 684h-59v-319h-129v319h-88v-684h-156z" />
<glyph unicode="&#x49d;" horiz-adv-x="1130" d="M193 0v1008h147v-426h80v266h125v-266h51l299 426h182l-348 -476l389 -532h-190l-330 459h-53v-266h-125v266h-80v-459h-147z" />
<glyph unicode="&#x4a2;" horiz-adv-x="1425" d="M211 0v1458h156v-653h692v653h155v-1319h76v-491h-153v352h-78v666h-692v-666h-156z" />
<glyph unicode="&#x4a3;" horiz-adv-x="1150" d="M186 0v1008h146v-424h487v424h148v-881h69v-428h-143v301h-74v457h-487v-457h-146z" />
<glyph unicode="&#x4ae;" horiz-adv-x="1052" d="M16 1458h168l344 -698l340 698h168l-430 -856v-602h-155v602z" />
<glyph unicode="&#x4af;" horiz-adv-x="915" d="M25 1008h157l277 -815l274 815h158l-361 -998v-461h-145v461z" />
<glyph unicode="&#x4b0;" horiz-adv-x="1052" d="M16 1458h168l344 -698l340 698h168l-430 -856h148v-98h-148v-504h-155v504h-152v98h152z" />
<glyph unicode="&#x4b1;" horiz-adv-x="915" d="M25 1008h157l277 -815l274 815h158l-361 -998h154v-98h-154v-363h-145v363h-156v98h156z" />
<glyph unicode="&#x4b2;" horiz-adv-x="1128" d="M31 0l446 748l-418 710h181l323 -575l324 575h180l-420 -710l367 -609h84v-491h-154v352h-26l-355 612l-356 -612h-176z" />
<glyph unicode="&#x4b3;" horiz-adv-x="978" d="M68 0l342 514l-328 494h178l232 -373l227 373h178l-328 -494l256 -387h86v-428h-143v301h-35l-241 391l-246 -391h-178z" />
<glyph unicode="&#x4b6;" horiz-adv-x="1320" d="M156 905v553h155v-524q0 -80 23.5 -129t61.5 -77t86 -38t100 -10q39 0 89 5t101 13.5t99.5 17.5t82.5 15v727h156v-1319h76v-491h-154v352h-78v596q-35 -6 -84 -16.5t-106 -18.5t-114.5 -14t-106.5 -6q-74 0 -144.5 18.5t-124 61.5t-86 112.5t-32.5 171.5z" />
<glyph unicode="&#x4b7;" horiz-adv-x="1071" d="M143 641v367h148v-340q0 -100 44 -140.5t130 -40.5q78 0 149.5 11.5t124.5 21.5v488h148v-881h69v-428h-143v301h-74v393q-57 -12 -136 -25.5t-167 -13.5q-133 0 -213 69t-80 218z" />
<glyph unicode="&#x4b8;" horiz-adv-x="1329" d="M156 905v553h155v-524q0 -78 22.5 -126t58.5 -77t83 -40t96 -11v319h134v-311q70 8 140 20.5t118 22.5v727h155v-1458h-155v596q-45 -10 -115 -21.5t-143 -21.5v-332h-134v320h-24q-76 0 -146.5 18.5t-125 61.5t-87 112.5t-32.5 171.5z" />
<glyph unicode="&#x4b9;" horiz-adv-x="1097" d="M143 641v367h148v-340q0 -96 48 -135t130 -44v261h119v-256q51 4 97 11t81 15v488h147v-1008h-147v393q-35 -8 -81 -16t-97 -15v-268h-119v260h-20q-137 0 -221.5 69t-84.5 218z" />
<glyph unicode="&#x4ba;" horiz-adv-x="1320" d="M211 0v1458h156v-596q33 6 83 16.5t107 18.5t114.5 14.5t106.5 6.5q74 0 144.5 -18.5t124 -61.5t86 -113t32.5 -172v-553h-155v524q0 80 -23.5 129t-61.5 77t-86 38t-100 10q-39 0 -89 -5t-101 -13t-99.5 -17.5t-82.5 -15.5v-727h-156z" />
<glyph unicode="&#x4bb;" horiz-adv-x="1071" d="M184 0v1008h148v-394q57 12 136 25.5t167 13.5q133 0 213 -68.5t80 -217.5v-367h-148v340q0 100 -44 140t-130 40q-78 0 -149.5 -11t-124.5 -22v-487h-148z" />
<glyph unicode="&#x4c0;" horiz-adv-x="577" d="M211 0v1458h156v-1458h-156z" />
<glyph unicode="&#x4cf;" horiz-adv-x="507" d="M180 0v1458h148v-1458h-148z" />
<glyph unicode="&#x4d8;" horiz-adv-x="1331" d="M152 532v232h868q0 104 -4 177t-15.5 125t-31 89t-51.5 72q-47 49 -114 76.5t-138 27.5q-137 0 -230.5 -78.5t-124.5 -218.5h-155q16 96 58 176t107.5 138.5t152.5 90t192 31.5q221 0 372 -151q51 -51 79 -106.5t41 -124t15.5 -155.5t2.5 -204t-2.5 -204t-15.5 -155.5 t-40.5 -124t-79.5 -106.5q-74 -74 -169 -112.5t-203 -38.5q-113 0 -212.5 42t-177.5 126q-68 72 -96 161t-28 215zM307 516q0 -86 18.5 -148.5t63.5 -115.5q51 -61 124 -93t153 -32q72 0 138 26.5t114 75.5q31 31 49 65t29.5 80t16.5 106.5t7 146.5h-713v-111z" />
<glyph unicode="&#x4d9;" horiz-adv-x="1085" d="M129 477v66h680q0 166 -75 257t-222 91q-88 0 -146.5 -27.5t-117.5 -87.5l-101 88q76 76 159 116t210 40q100 0 182 -31t139.5 -94.5t88 -160.5t30.5 -230q0 -248 -110.5 -382t-302.5 -134q-199 0 -306.5 130t-107.5 359zM274 432q4 -61 9.5 -93t23.5 -75 q31 -72 92.5 -111.5t143.5 -39.5t144.5 40t90.5 111q8 20 13.5 39t8.5 37t5 40.5t4 51.5h-535z" />
<glyph unicode="&#x4e2;" horiz-adv-x="1466" d="M211 0v1458h156v-1188l741 1188h147v-1458h-155v1190l-742 -1190h-147zM426 1634v117h616v-117h-616z" />
<glyph unicode="&#x4e3;" horiz-adv-x="1181" d="M186 0v1008h146v-777l518 777h147v-1008h-147v780l-518 -780h-146zM285 1233v115h616v-115h-616z" />
<glyph unicode="&#x4e8;" horiz-adv-x="1331" d="M156 729q0 125 3 215t17 157.5t44 121t81 104.5q68 68 159 105.5t206 37.5t205 -37.5t157 -105.5q53 -53 83 -106.5t44 -121t17.5 -156.5t3.5 -214t-3.5 -214t-17.5 -156.5t-44 -121t-83 -106.5q-68 -68 -158 -105.5t-204 -37.5q-115 0 -206 37.5t-159 105.5 q-51 51 -81 104.5t-44 121t-17 157.5t-3 215zM311 664q0 -94 4 -162t15.5 -117t31 -86t52.5 -70q49 -51 113.5 -76.5t138.5 -25.5q150 0 252 102q31 33 51 70t30.5 86t15.5 116.5t5 162.5h-709zM311 801h709q0 92 -5 157.5t-15.5 114.5t-31 86t-50.5 70q-102 102 -252 102 q-74 0 -138.5 -25.5t-113.5 -76.5q-31 -33 -51.5 -70t-30.5 -86t-15.5 -114.5t-5.5 -157.5z" />
<glyph unicode="&#x4e9;" horiz-adv-x="1085" d="M131 504q0 57 5 113.5t18.5 106.5t37 96t62.5 85q53 53 125 84t164 31t163.5 -31t124.5 -84q76 -78 99.5 -181t23.5 -220t-23.5 -220.5t-99.5 -181.5q-53 -53 -124.5 -83.5t-163.5 -30.5t-164 30.5t-125 83.5q-39 39 -62.5 85t-37 96.5t-18.5 105.5t-5 115zM279 465 q2 -78 17 -150.5t64 -121.5q74 -74 183 -74q110 0 184 74q49 49 63.5 121.5t16.5 150.5h-528zM279 575h526q-4 68 -19.5 131.5t-58.5 108.5q-74 74 -184 74q-109 0 -183 -74q-45 -45 -61 -108.5t-20 -131.5z" />
<glyph unicode="&#x4ee;" horiz-adv-x="1118" d="M20 1458h166l394 -862l354 862h166l-529 -1231q-43 -100 -110.5 -163.5t-175.5 -63.5h-127v139h92q76 0 118 35t74 111l60 137zM271 1634v117h616v-117h-616z" />
<glyph unicode="&#x4ef;" horiz-adv-x="915" d="M23 1008h159l277 -809l274 809h160l-459 -1252q-29 -80 -72 -118q-41 -39 -92 -54.5t-104 -15.5h-64v131h45q76 0 109 27.5t57 97.5l72 196zM152 1233v115h616v-115h-616z" />
<glyph unicode="&#x2000;" horiz-adv-x="956" />
<glyph unicode="&#x2001;" horiz-adv-x="1913" />
<glyph unicode="&#x2002;" horiz-adv-x="956" />
<glyph unicode="&#x2003;" horiz-adv-x="1913" />
<glyph unicode="&#x2004;" horiz-adv-x="637" />
<glyph unicode="&#x2005;" horiz-adv-x="478" />
<glyph unicode="&#x2006;" horiz-adv-x="318" />
<glyph unicode="&#x2007;" horiz-adv-x="318" />
<glyph unicode="&#x2008;" horiz-adv-x="239" />
<glyph unicode="&#x2009;" horiz-adv-x="382" />
<glyph unicode="&#x200a;" horiz-adv-x="106" />
<glyph unicode="&#x2010;" horiz-adv-x="872" d="M156 483v138h561v-138h-561z" />
<glyph unicode="&#x2011;" horiz-adv-x="872" d="M156 483v138h561v-138h-561z" />
<glyph unicode="&#x2012;" horiz-adv-x="872" d="M156 483v138h561v-138h-561z" />
<glyph unicode="&#x2013;" horiz-adv-x="1069" d="M106 483v138h857v-138h-857z" />
<glyph unicode="&#x2014;" horiz-adv-x="1871" d="M156 483v140h1560v-140h-1560z" />
<glyph unicode="&#x2018;" horiz-adv-x="538" d="M180 1286v172l178 162v-334h-178z" />
<glyph unicode="&#x2019;" horiz-adv-x="538" d="M180 1124v334h178v-172z" />
<glyph unicode="&#x201a;" horiz-adv-x="538" d="M180 -162v334h178v-172z" />
<glyph unicode="&#x201c;" horiz-adv-x="888" d="M180 1286v172l178 162v-334h-178zM528 1286v172l181 162v-334h-181z" />
<glyph unicode="&#x201d;" horiz-adv-x="888" d="M180 1124v334h178v-172zM528 1124v334h181v-172z" />
<glyph unicode="&#x201e;" horiz-adv-x="888" d="M180 -162v334h178v-172zM528 -162v334h181v-172z" />
<glyph unicode="&#x2022;" horiz-adv-x="1089" d="M211 684q0 70 26.5 130t71.5 105.5t105.5 72t130.5 26.5t130 -26.5t105 -72t72 -105.5t27 -130t-27 -130t-72 -105.5t-105.5 -72t-129.5 -26.5q-70 0 -130.5 26.5t-105.5 72t-71.5 105.5t-26.5 130z" />
<glyph unicode="&#x2026;" horiz-adv-x="1550" d="M180 0v188h189v-188h-189zM680 0v188h188v-188h-188zM1182 0v188h188v-188h-188z" />
<glyph unicode="&#x202f;" horiz-adv-x="382" />
<glyph unicode="&#x2039;" horiz-adv-x="671" d="M82 549l430 430v-184l-246 -246l246 -248v-182z" />
<glyph unicode="&#x203a;" horiz-adv-x="671" d="M160 119v182l248 248l-248 246v184l430 -430z" />
<glyph unicode="&#x205f;" horiz-adv-x="478" />
<glyph unicode="&#x20ac;" horiz-adv-x="1388" d="M96 532v103h135v201h-135v100h137q2 72 11.5 128t26 101t42 84t64.5 78q68 68 159 105.5t203 37.5q201 0 335 -114.5t171 -319.5h-158q-29 135 -118.5 215t-229.5 80q-150 0 -252 -102q-25 -27 -42 -54.5t-28 -62.5t-17.5 -78t-8.5 -98h449v-100h-453v-201h453v-103h-449 q4 -117 23.5 -184t72.5 -119q102 -102 252 -102q139 0 230.5 80t122.5 215h153q-18 -102 -62 -183t-110.5 -136.5t-150.5 -85t-183 -29.5q-113 0 -204 37.5t-158 105.5q-39 39 -65.5 79t-43 86t-24.5 103.5t-11 132.5h-137z" />
<glyph unicode="&#x2122;" horiz-adv-x="1718" d="M74 1350v108h604v-108h-244v-766h-119v766h-241zM831 584v874h119l267 -530l266 530h116v-874h-116v630l-209 -413h-115l-209 413v-630h-119z" />
<glyph unicode="&#x25fc;" horiz-adv-x="1003" d="M0 0v1004h1004v-1004h-1004z" />
</font>
</defs>
</svg>
